# xmcd
#
# Track frame offsets: 
#        150
#        23620
#        46727
#        59670
#        72327
#        86096
#        131323
#        144264
#        156008
#        177526
#        188027
#        200220
#        212425
#        225229
#        235729
#        246470
#        259284
#        268641
#
# Disc length: 3742 seconds
#
# Revision: 1
# Processed by: cddbd v1.5.2PL0 Copyright (c) Steve Scherf et al.
# Submitted via: ExactAudioCopyFreeDBPlugin 1.0
#
DISCID=fe0e9c12
DTITLE=Dyke and the Blazers - The Funky Broadway:  The Very Best of Dy
DTITLE=ke and The Blazers
DYEAR=1999
DGENRE=Rhythm and Blues
TTITLE0=Funky Broadway, Parts 1 and 2
TTITLE1=Funky Walk, Parts 1 and 2
TTITLE2=Uhh
TTITLE3=Broadway Combination
TTITLE4=City Dump
TTITLE5=Wrong House
TTITLE6=So Sharp
TTITLE7=Don't Bug Me
TTITLE8=Funky Bull, Parts 1 and 2
TTITLE9=Shot Gun Slim
TTITLE10=We Got More Soul
TTITLE11=Let a Woman Be a Woman, Let a Man Be a Man
TTITLE12=You Are My Sunshine
TTITLE13=My Sister's and Brother's Day is Comin'
TTITLE14=Runaway People
TTITLE15=I'm So All Alone
TTITLE16=Stuff
TTITLE17=The Wobble
EXTD=
EXTT0=
EXTT1=
EXTT2=
EXTT3=
EXTT4=
EXTT5=
EXTT6=
EXTT7=
EXTT8=
EXTT9=
EXTT10=
EXTT11=
EXTT12=
EXTT13=
EXTT14=
EXTT15=
EXTT16=
EXTT17=
PLAYORDER=
